<svg width="1172" height="27" viewBox="0 0 1172 27" fill="none" xmlns="http://www.w3.org/2000/svg">
<path d="M1162.43 11.7422C1162.43 11.26 1162.38 10.8884 1162.31 10.5167H1155.36V13.048H1159.54C1159.37 14.1228 1158.28 16.2221 1155.36 16.2221C1152.85 16.2221 1150.8 14.1429 1150.8 11.5714C1150.8 9 1152.85 6.92076 1155.36 6.92076C1156.8 6.92076 1157.75 7.53348 1158.3 8.0558L1160.29 6.13728C1159.01 4.93192 1157.35 4.2087 1155.36 4.2087C1151.29 4.2087 1148 7.50335 1148 11.5714C1148 15.6395 1151.29 18.9342 1155.36 18.9342C1159.61 18.9342 1162.43 15.9509 1162.43 11.7422ZM1171.14 10.5167H1169.04V8.41741H1166.93V10.5167H1164.83V12.6261H1166.93V14.7254H1169.04V12.6261H1171.14V10.5167Z" fill="#151439" fill-opacity="0.4"/>
<path d="M1111.54 3.85714H1101.89C1100.3 3.85714 1099 5.1529 1099 6.75V16.3929C1099 17.99 1100.3 19.2857 1101.89 19.2857H1107.24V13.3092H1105.23V10.9788H1107.24V9.26116C1107.24 7.27232 1108.46 6.1875 1110.24 6.1875C1111.08 6.1875 1111.82 6.24777 1112.03 6.2779V8.35714L1110.8 8.36719C1109.83 8.36719 1109.65 8.8192 1109.65 9.49219V10.9788H1111.95L1111.65 13.3092H1109.65V19.2857H1111.54C1113.13 19.2857 1114.43 17.99 1114.43 16.3929V6.75C1114.43 5.1529 1113.13 3.85714 1111.54 3.85714Z" fill="#151439" fill-opacity="0.4"/>
<path d="M1062.27 6.66964C1061.69 6.92076 1061.06 7.10156 1060.4 7.17188C1061.08 6.77009 1061.59 6.13728 1061.83 5.38393C1061.21 5.75558 1060.5 6.02679 1059.77 6.16741C1059.18 5.5346 1058.33 5.14286 1057.4 5.14286C1055.6 5.14286 1054.16 6.59933 1054.16 8.38728C1054.16 8.63839 1054.19 8.88951 1054.24 9.13058C1051.54 8.98995 1049.14 7.70424 1047.55 5.73549C1047.27 6.21763 1047.1 6.77009 1047.1 7.37277C1047.1 8.49777 1047.68 9.49219 1048.55 10.0748C1048.02 10.0547 1047.52 9.90402 1047.08 9.66295C1047.08 9.67299 1047.08 9.69308 1047.08 9.70312C1047.08 11.2801 1048.2 12.5859 1049.69 12.8873C1049.42 12.9576 1049.12 12.9978 1048.83 12.9978C1048.62 12.9978 1048.42 12.9777 1048.22 12.9475C1048.63 14.2333 1049.83 15.1674 1051.25 15.1975C1050.14 16.0714 1048.74 16.5837 1047.23 16.5837C1046.95 16.5837 1046.7 16.5737 1046.44 16.5435C1047.88 17.4676 1049.59 18 1051.42 18C1057.39 18 1060.66 13.058 1060.66 8.76897C1060.66 8.62835 1060.66 8.48772 1060.65 8.3471C1061.28 7.88504 1061.83 7.3125 1062.27 6.66964Z" fill="#151439" fill-opacity="0.4"/>
<path d="M556.278 18.3999V5.7999H561.03C562.338 5.7999 563.328 6.1059 564 6.7179C564.672 7.3299 565.008 8.0979 565.008 9.0219C565.008 9.8259 564.792 10.4679 564.36 10.9479C563.928 11.4159 563.406 11.7339 562.794 11.9019C563.274 11.9979 563.7 12.1899 564.072 12.4779C564.456 12.7659 564.756 13.1259 564.972 13.5579C565.188 13.9899 565.296 14.4579 565.296 14.9619C565.296 15.6099 565.134 16.1979 564.81 16.7259C564.498 17.2419 564.036 17.6499 563.424 17.9499C562.812 18.2499 562.062 18.3999 561.174 18.3999H556.278ZM558.186 11.1999H560.796C561.528 11.1999 562.086 11.0319 562.47 10.6959C562.854 10.3479 563.046 9.8739 563.046 9.2739C563.046 8.6859 562.854 8.2179 562.47 7.8699C562.098 7.5219 561.528 7.3479 560.76 7.3479H558.186V11.1999ZM558.186 16.8339H560.922C561.69 16.8339 562.284 16.6539 562.704 16.2939C563.136 15.9339 563.352 15.4299 563.352 14.7819C563.352 14.1339 563.13 13.6239 562.686 13.2519C562.242 12.8679 561.642 12.6759 560.886 12.6759H558.186V16.8339ZM567.315 18.3999V5.4399H569.223V18.3999H567.315ZM575.816 18.6159C574.964 18.6159 574.196 18.4239 573.512 18.0399C572.84 17.6439 572.306 17.0979 571.91 16.4019C571.514 15.6939 571.316 14.8719 571.316 13.9359C571.316 12.9999 571.514 12.1839 571.91 11.4879C572.318 10.7799 572.864 10.2339 573.548 9.8499C574.232 9.4539 574.994 9.2559 575.834 9.2559C576.686 9.2559 577.448 9.4539 578.12 9.8499C578.804 10.2339 579.344 10.7799 579.74 11.4879C580.148 12.1839 580.352 12.9999 580.352 13.9359C580.352 14.8719 580.148 15.6939 579.74 16.4019C579.344 17.0979 578.804 17.6439 578.12 18.0399C577.436 18.4239 576.668 18.6159 575.816 18.6159ZM575.816 16.9779C576.272 16.9779 576.692 16.8639 577.076 16.6359C577.472 16.4079 577.79 16.0719 578.03 15.6279C578.27 15.1719 578.39 14.6079 578.39 13.9359C578.39 13.2639 578.27 12.7059 578.03 12.2619C577.802 11.8059 577.49 11.4639 577.094 11.2359C576.71 11.0079 576.29 10.8939 575.834 10.8939C575.378 10.8939 574.952 11.0079 574.556 11.2359C574.172 11.4639 573.86 11.8059 573.62 12.2619C573.38 12.7059 573.26 13.2639 573.26 13.9359C573.26 14.6079 573.38 15.1719 573.62 15.6279C573.86 16.0719 574.172 16.4079 574.556 16.6359C574.94 16.8639 575.36 16.9779 575.816 16.9779ZM585.594 15.6639C585.126 15.6639 584.694 15.6099 584.298 15.5019L583.524 16.2579C583.656 16.3419 583.818 16.4139 584.01 16.4739C584.202 16.5339 584.472 16.5879 584.82 16.6359C585.168 16.6839 585.642 16.7319 586.242 16.7799C587.43 16.8879 588.288 17.1759 588.816 17.6439C589.344 18.0999 589.608 18.7119 589.608 19.4799C589.608 20.0079 589.464 20.5059 589.176 20.9739C588.9 21.4539 588.462 21.8379 587.862 22.1259C587.274 22.4259 586.518 22.5759 585.594 22.5759C584.346 22.5759 583.332 22.3359 582.552 21.8559C581.784 21.3879 581.4 20.6739 581.4 19.7139C581.4 19.3419 581.496 18.9699 581.688 18.5979C581.892 18.2379 582.21 17.8959 582.642 17.5719C582.39 17.4639 582.168 17.3499 581.976 17.2299C581.796 17.0979 581.634 16.9659 581.49 16.8339V16.4019L583.038 14.8179C582.342 14.2179 581.994 13.4319 581.994 12.4599C581.994 11.8719 582.132 11.3379 582.408 10.8579C582.696 10.3659 583.11 9.9759 583.65 9.6879C584.19 9.3999 584.838 9.2559 585.594 9.2559C586.098 9.2559 586.566 9.3279 586.998 9.4719H590.328V10.7319L588.744 10.8219C589.032 11.3139 589.176 11.8599 589.176 12.4599C589.176 13.0599 589.032 13.5999 588.744 14.0799C588.468 14.5599 588.06 14.9439 587.52 15.2319C586.992 15.5199 586.35 15.6639 585.594 15.6639ZM585.594 14.1699C586.146 14.1699 586.59 14.0259 586.926 13.7379C587.274 13.4379 587.448 13.0179 587.448 12.4779C587.448 11.9259 587.274 11.5059 586.926 11.2179C586.59 10.9299 586.146 10.7859 585.594 10.7859C585.03 10.7859 584.574 10.9299 584.226 11.2179C583.89 11.5059 583.722 11.9259 583.722 12.4779C583.722 13.0179 583.89 13.4379 584.226 13.7379C584.574 14.0259 585.03 14.1699 585.594 14.1699ZM583.2 19.5339C583.2 20.0499 583.428 20.4339 583.884 20.6859C584.34 20.9499 584.91 21.0819 585.594 21.0819C586.254 21.0819 586.788 20.9379 587.196 20.6499C587.604 20.3739 587.808 20.0019 587.808 19.5339C587.808 19.1859 587.67 18.8859 587.394 18.6339C587.118 18.3939 586.596 18.2439 585.828 18.1839C585.252 18.1479 584.742 18.0939 584.298 18.0219C583.878 18.2499 583.59 18.4959 583.434 18.7599C583.278 19.0239 583.2 19.2819 583.2 19.5339Z" fill="#151439" fill-opacity="0.4"/>
<path d="M459.436 18.6159C458.512 18.6159 457.702 18.4539 457.006 18.1299C456.31 17.8059 455.764 17.3439 455.368 16.7439C454.984 16.1439 454.786 15.4299 454.774 14.6019H456.79C456.802 15.2739 457.036 15.8439 457.492 16.3119C457.948 16.7799 458.59 17.0139 459.418 17.0139C460.15 17.0139 460.72 16.8399 461.128 16.4919C461.548 16.1319 461.758 15.6759 461.758 15.1239C461.758 14.6799 461.656 14.3199 461.452 14.0439C461.26 13.7679 460.99 13.5399 460.642 13.3599C460.306 13.1799 459.916 13.0179 459.472 12.8739C459.028 12.7299 458.56 12.5739 458.068 12.4059C457.096 12.0819 456.364 11.6619 455.872 11.1459C455.392 10.6299 455.152 9.9519 455.152 9.1119C455.14 8.4039 455.302 7.7859 455.638 7.2579C455.986 6.7299 456.466 6.3219 457.078 6.0339C457.702 5.7339 458.428 5.5839 459.256 5.5839C460.072 5.5839 460.786 5.7339 461.398 6.0339C462.022 6.3339 462.508 6.7539 462.856 7.2939C463.204 7.8219 463.384 8.4399 463.396 9.1479H461.38C461.38 8.8239 461.296 8.5179 461.128 8.2299C460.96 7.9299 460.714 7.6839 460.39 7.4919C460.066 7.2999 459.67 7.2039 459.202 7.2039C458.602 7.1919 458.104 7.3419 457.708 7.6539C457.324 7.9659 457.132 8.3979 457.132 8.9499C457.132 9.4419 457.276 9.8199 457.564 10.0839C457.852 10.3479 458.248 10.5699 458.752 10.7499C459.256 10.9179 459.832 11.1159 460.48 11.3439C461.104 11.5479 461.662 11.7939 462.154 12.0819C462.646 12.3699 463.036 12.7479 463.324 13.2159C463.624 13.6839 463.774 14.2779 463.774 14.9979C463.774 15.6339 463.612 16.2279 463.288 16.7799C462.964 17.3199 462.478 17.7639 461.83 18.1119C461.182 18.4479 460.384 18.6159 459.436 18.6159ZM473.996 9.4719V18.3999H472.304L472.16 16.8339C471.884 17.3859 471.476 17.8239 470.936 18.1479C470.408 18.4599 469.796 18.6159 469.1 18.6159C468.02 18.6159 467.168 18.2799 466.544 17.6079C465.932 16.9359 465.626 15.9339 465.626 14.6019V9.4719H467.516V14.4039C467.516 16.1319 468.224 16.9959 469.64 16.9959C470.348 16.9959 470.93 16.7439 471.386 16.2399C471.854 15.7359 472.088 15.0159 472.088 14.0799V9.4719H473.996ZM476.405 22.3599V9.4719H478.115L478.313 10.8579C478.601 10.4379 478.997 10.0659 479.501 9.7419C480.005 9.4179 480.653 9.2559 481.445 9.2559C482.309 9.2559 483.071 9.4599 483.731 9.8679C484.391 10.2759 484.907 10.8339 485.279 11.5419C485.663 12.2499 485.855 13.0539 485.855 13.9539C485.855 14.8539 485.663 15.6579 485.279 16.3659C484.907 17.0619 484.391 17.6139 483.731 18.0219C483.071 18.4179 482.303 18.6159 481.427 18.6159C480.731 18.6159 480.113 18.4779 479.573 18.2019C479.045 17.9259 478.625 17.5359 478.313 17.0319V22.3599H476.405ZM481.103 16.9599C481.919 16.9599 482.591 16.6839 483.119 16.1319C483.647 15.5679 483.911 14.8359 483.911 13.9359C483.911 13.3479 483.791 12.8259 483.551 12.3699C483.311 11.9139 482.981 11.5599 482.561 11.3079C482.141 11.0439 481.655 10.9119 481.103 10.9119C480.287 10.9119 479.615 11.1939 479.087 11.7579C478.571 12.3219 478.313 13.0479 478.313 13.9359C478.313 14.8359 478.571 15.5679 479.087 16.1319C479.615 16.6839 480.287 16.9599 481.103 16.9599ZM487.919 22.3599V9.4719H489.629L489.827 10.8579C490.115 10.4379 490.511 10.0659 491.015 9.7419C491.519 9.4179 492.167 9.2559 492.959 9.2559C493.823 9.2559 494.585 9.4599 495.245 9.8679C495.905 10.2759 496.421 10.8339 496.793 11.5419C497.177 12.2499 497.369 13.0539 497.369 13.9539C497.369 14.8539 497.177 15.6579 496.793 16.3659C496.421 17.0619 495.905 17.6139 495.245 18.0219C494.585 18.4179 493.817 18.6159 492.941 18.6159C492.245 18.6159 491.627 18.4779 491.087 18.2019C490.559 17.9259 490.139 17.5359 489.827 17.0319V22.3599H487.919ZM492.617 16.9599C493.433 16.9599 494.105 16.6839 494.633 16.1319C495.161 15.5679 495.425 14.8359 495.425 13.9359C495.425 13.3479 495.305 12.8259 495.065 12.3699C494.825 11.9139 494.495 11.5599 494.075 11.3079C493.655 11.0439 493.169 10.9119 492.617 10.9119C491.801 10.9119 491.129 11.1939 490.601 11.7579C490.085 12.3219 489.827 13.0479 489.827 13.9359C489.827 14.8359 490.085 15.5679 490.601 16.1319C491.129 16.6839 491.801 16.9599 492.617 16.9599ZM503.609 18.6159C502.757 18.6159 501.989 18.4239 501.305 18.0399C500.633 17.6439 500.099 17.0979 499.703 16.4019C499.307 15.6939 499.109 14.8719 499.109 13.9359C499.109 12.9999 499.307 12.1839 499.703 11.4879C500.111 10.7799 500.657 10.2339 501.341 9.8499C502.025 9.4539 502.787 9.2559 503.627 9.2559C504.479 9.2559 505.241 9.4539 505.913 9.8499C506.597 10.2339 507.137 10.7799 507.533 11.4879C507.941 12.1839 508.145 12.9999 508.145 13.9359C508.145 14.8719 507.941 15.6939 507.533 16.4019C507.137 17.0979 506.597 17.6439 505.913 18.0399C505.229 18.4239 504.461 18.6159 503.609 18.6159ZM503.609 16.9779C504.065 16.9779 504.485 16.8639 504.869 16.6359C505.265 16.4079 505.583 16.0719 505.823 15.6279C506.063 15.1719 506.183 14.6079 506.183 13.9359C506.183 13.2639 506.063 12.7059 505.823 12.2619C505.595 11.8059 505.283 11.4639 504.887 11.2359C504.503 11.0079 504.083 10.8939 503.627 10.8939C503.171 10.8939 502.745 11.0079 502.349 11.2359C501.965 11.4639 501.653 11.8059 501.413 12.2619C501.173 12.7059 501.053 13.2639 501.053 13.9359C501.053 14.6079 501.173 15.1719 501.413 15.6279C501.653 16.0719 501.965 16.4079 502.349 16.6359C502.733 16.8639 503.153 16.9779 503.609 16.9779ZM510.208 18.3999V9.4719H511.918L512.08 11.1639C512.392 10.5759 512.824 10.1139 513.376 9.7779C513.94 9.4299 514.618 9.2559 515.41 9.2559V11.2539H514.888C514.36 11.2539 513.886 11.3439 513.466 11.5239C513.058 11.6919 512.728 11.9859 512.476 12.4059C512.236 12.8139 512.116 13.3839 512.116 14.1159V18.3999H510.208ZM520.79 18.3999C519.914 18.3999 519.218 18.1899 518.702 17.7699C518.186 17.3379 517.928 16.5759 517.928 15.4839V11.0739H516.398V9.4719H517.928L518.162 7.2039H519.836V9.4719H522.356V11.0739H519.836V15.4839C519.836 15.9759 519.938 16.3179 520.142 16.5099C520.358 16.6899 520.724 16.7799 521.24 16.7799H522.266V18.3999H520.79Z" fill="#151439" fill-opacity="0.4"/>
<path d="M380.278 18.3999V5.7999H384.364C385.84 5.7999 387.052 6.0579 388 6.5739C388.96 7.0899 389.668 7.8219 390.124 8.7699C390.592 9.7059 390.826 10.8219 390.826 12.1179C390.826 13.4019 390.592 14.5179 390.124 15.4659C389.668 16.4019 388.96 17.1279 388 17.6439C387.052 18.1479 385.84 18.3999 384.364 18.3999H380.278ZM382.186 16.7799H384.292C385.432 16.7799 386.332 16.5939 386.992 16.2219C387.664 15.8499 388.144 15.3159 388.432 14.6199C388.732 13.9239 388.882 13.0899 388.882 12.1179C388.882 11.1459 388.732 10.3059 388.432 9.5979C388.144 8.8899 387.664 8.3499 386.992 7.9779C386.332 7.5939 385.432 7.4019 384.292 7.4019H382.186V16.7799ZM397.038 18.6159C396.186 18.6159 395.418 18.4239 394.734 18.0399C394.062 17.6439 393.528 17.0979 393.132 16.4019C392.736 15.6939 392.538 14.8719 392.538 13.9359C392.538 12.9999 392.736 12.1839 393.132 11.4879C393.54 10.7799 394.086 10.2339 394.77 9.8499C395.454 9.4539 396.216 9.2559 397.056 9.2559C397.908 9.2559 398.67 9.4539 399.342 9.8499C400.026 10.2339 400.566 10.7799 400.962 11.4879C401.37 12.1839 401.574 12.9999 401.574 13.9359C401.574 14.8719 401.37 15.6939 400.962 16.4019C400.566 17.0979 400.026 17.6439 399.342 18.0399C398.658 18.4239 397.89 18.6159 397.038 18.6159ZM397.038 16.9779C397.494 16.9779 397.914 16.8639 398.298 16.6359C398.694 16.4079 399.012 16.0719 399.252 15.6279C399.492 15.1719 399.612 14.6079 399.612 13.9359C399.612 13.2639 399.492 12.7059 399.252 12.2619C399.024 11.8059 398.712 11.4639 398.316 11.2359C397.932 11.0079 397.512 10.8939 397.056 10.8939C396.6 10.8939 396.174 11.0079 395.778 11.2359C395.394 11.4639 395.082 11.8059 394.842 12.2619C394.602 12.7059 394.482 13.2639 394.482 13.9359C394.482 14.6079 394.602 15.1719 394.842 15.6279C395.082 16.0719 395.394 16.4079 395.778 16.6359C396.162 16.8639 396.582 16.9779 397.038 16.9779ZM407.868 18.6159C406.992 18.6159 406.206 18.4179 405.51 18.0219C404.826 17.6259 404.286 17.0799 403.89 16.3839C403.506 15.6759 403.314 14.8599 403.314 13.9359C403.314 13.0119 403.506 12.2019 403.89 11.5059C404.286 10.7979 404.826 10.2459 405.51 9.8499C406.206 9.4539 406.992 9.2559 407.868 9.2559C408.972 9.2559 409.896 9.5439 410.64 10.1199C411.396 10.6959 411.882 11.4759 412.098 12.4599H410.1C409.98 11.9679 409.716 11.5839 409.308 11.3079C408.9 11.0319 408.42 10.8939 407.868 10.8939C407.4 10.8939 406.968 11.0139 406.572 11.2539C406.176 11.4819 405.858 11.8239 405.618 12.2799C405.378 12.7239 405.258 13.2759 405.258 13.9359C405.258 14.5959 405.378 15.1539 405.618 15.6099C405.858 16.0539 406.176 16.3959 406.572 16.6359C406.968 16.8759 407.4 16.9959 407.868 16.9959C408.42 16.9959 408.9 16.8579 409.308 16.5819C409.716 16.3059 409.98 15.9159 410.1 15.4119H412.098C411.894 16.3719 411.414 17.1459 410.658 17.7339C409.902 18.3219 408.972 18.6159 407.868 18.6159ZM417.731 18.6159C416.603 18.6159 415.673 18.3399 414.941 17.7879C414.209 17.2359 413.789 16.5039 413.681 15.5919H415.607C415.703 15.9999 415.931 16.3539 416.291 16.6539C416.651 16.9419 417.125 17.0859 417.713 17.0859C418.289 17.0859 418.709 16.9659 418.973 16.7259C419.237 16.4859 419.369 16.2099 419.369 15.8979C419.369 15.4419 419.183 15.1359 418.811 14.9799C418.451 14.8119 417.947 14.6619 417.299 14.5299C416.795 14.4219 416.291 14.2779 415.787 14.0979C415.295 13.9179 414.881 13.6659 414.545 13.3419C414.221 13.0059 414.059 12.5559 414.059 11.9919C414.059 11.2119 414.359 10.5639 414.959 10.0479C415.559 9.5199 416.399 9.2559 417.479 9.2559C418.475 9.2559 419.279 9.4959 419.891 9.9759C420.515 10.4559 420.881 11.1339 420.989 12.0099H419.153C419.093 11.6259 418.913 11.3259 418.613 11.1099C418.325 10.8939 417.935 10.7859 417.443 10.7859C416.963 10.7859 416.591 10.8879 416.327 11.0919C416.063 11.2839 415.931 11.5359 415.931 11.8479C415.931 12.1599 416.111 12.4059 416.471 12.5859C416.843 12.7659 417.329 12.9279 417.929 13.0719C418.529 13.2039 419.081 13.3599 419.585 13.5399C420.101 13.7079 420.515 13.9599 420.827 14.2959C421.139 14.6319 421.295 15.1239 421.295 15.7719C421.307 16.5879 420.989 17.2659 420.341 17.8059C419.705 18.3459 418.835 18.6159 417.731 18.6159Z" fill="#151439" fill-opacity="0.4"/>
<path d="M250.278 18.3999V5.7999H254.364C255.84 5.7999 257.052 6.0579 258 6.5739C258.96 7.0899 259.668 7.8219 260.124 8.7699C260.592 9.7059 260.826 10.8219 260.826 12.1179C260.826 13.4019 260.592 14.5179 260.124 15.4659C259.668 16.4019 258.96 17.1279 258 17.6439C257.052 18.1479 255.84 18.3999 254.364 18.3999H250.278ZM252.186 16.7799H254.292C255.432 16.7799 256.332 16.5939 256.992 16.2219C257.664 15.8499 258.144 15.3159 258.432 14.6199C258.732 13.9239 258.882 13.0899 258.882 12.1179C258.882 11.1459 258.732 10.3059 258.432 9.5979C258.144 8.8899 257.664 8.3499 256.992 7.9779C256.332 7.5939 255.432 7.4019 254.292 7.4019H252.186V16.7799ZM267.038 18.6159C266.186 18.6159 265.418 18.4239 264.734 18.0399C264.062 17.6439 263.528 17.0979 263.132 16.4019C262.736 15.6939 262.538 14.8719 262.538 13.9359C262.538 12.9999 262.736 12.1839 263.132 11.4879C263.54 10.7799 264.086 10.2339 264.77 9.8499C265.454 9.4539 266.216 9.2559 267.056 9.2559C267.908 9.2559 268.67 9.4539 269.342 9.8499C270.026 10.2339 270.566 10.7799 270.962 11.4879C271.37 12.1839 271.574 12.9999 271.574 13.9359C271.574 14.8719 271.37 15.6939 270.962 16.4019C270.566 17.0979 270.026 17.6439 269.342 18.0399C268.658 18.4239 267.89 18.6159 267.038 18.6159ZM267.038 16.9779C267.494 16.9779 267.914 16.8639 268.298 16.6359C268.694 16.4079 269.012 16.0719 269.252 15.6279C269.492 15.1719 269.612 14.6079 269.612 13.9359C269.612 13.2639 269.492 12.7059 269.252 12.2619C269.024 11.8059 268.712 11.4639 268.316 11.2359C267.932 11.0079 267.512 10.8939 267.056 10.8939C266.6 10.8939 266.174 11.0079 265.778 11.2359C265.394 11.4639 265.082 11.8059 264.842 12.2619C264.602 12.7059 264.482 13.2639 264.482 13.9359C264.482 14.6079 264.602 15.1719 264.842 15.6279C265.082 16.0719 265.394 16.4079 265.778 16.6359C266.162 16.8639 266.582 16.9779 267.038 16.9779ZM275.086 18.3999L272.458 9.4719H274.366L276.094 16.2039L278.038 9.4719H280.162L282.106 16.2039L283.834 9.4719H285.742L283.114 18.3999H281.152L279.1 11.3799L277.048 18.3999H275.086ZM287.313 18.3999V9.4719H289.005L289.149 11.0379C289.425 10.4859 289.827 10.0539 290.355 9.7419C290.895 9.4179 291.513 9.2559 292.209 9.2559C293.289 9.2559 294.135 9.5919 294.747 10.2639C295.371 10.9359 295.683 11.9379 295.683 13.2699V18.3999H293.793V13.4679C293.793 11.7399 293.085 10.8759 291.669 10.8759C290.961 10.8759 290.373 11.1279 289.905 11.6319C289.449 12.1359 289.221 12.8559 289.221 13.7919V18.3999H287.313ZM297.931 18.3999V5.4399H299.839V18.3999H297.931ZM306.431 18.6159C305.579 18.6159 304.811 18.4239 304.127 18.0399C303.455 17.6439 302.921 17.0979 302.525 16.4019C302.129 15.6939 301.931 14.8719 301.931 13.9359C301.931 12.9999 302.129 12.1839 302.525 11.4879C302.933 10.7799 303.479 10.2339 304.163 9.8499C304.847 9.4539 305.609 9.2559 306.449 9.2559C307.301 9.2559 308.063 9.4539 308.735 9.8499C309.419 10.2339 309.959 10.7799 310.355 11.4879C310.763 12.1839 310.967 12.9999 310.967 13.9359C310.967 14.8719 310.763 15.6939 310.355 16.4019C309.959 17.0979 309.419 17.6439 308.735 18.0399C308.051 18.4239 307.283 18.6159 306.431 18.6159ZM306.431 16.9779C306.887 16.9779 307.307 16.8639 307.691 16.6359C308.087 16.4079 308.405 16.0719 308.645 15.6279C308.885 15.1719 309.005 14.6079 309.005 13.9359C309.005 13.2639 308.885 12.7059 308.645 12.2619C308.417 11.8059 308.105 11.4639 307.709 11.2359C307.325 11.0079 306.905 10.8939 306.449 10.8939C305.993 10.8939 305.567 11.0079 305.171 11.2359C304.787 11.4639 304.475 11.8059 304.235 12.2619C303.995 12.7059 303.875 13.2639 303.875 13.9359C303.875 14.6079 303.995 15.1719 304.235 15.6279C304.475 16.0719 304.787 16.4079 305.171 16.6359C305.555 16.8639 305.975 16.9779 306.431 16.9779ZM316.054 18.6159C315.298 18.6159 314.674 18.4899 314.182 18.2379C313.69 17.9859 313.324 17.6559 313.084 17.2479C312.844 16.8279 312.724 16.3719 312.724 15.8799C312.724 15.0159 313.06 14.3319 313.732 13.8279C314.404 13.3239 315.364 13.0719 316.612 13.0719H318.952V12.9099C318.952 12.2139 318.76 11.6919 318.376 11.3439C318.004 10.9959 317.518 10.8219 316.918 10.8219C316.39 10.8219 315.928 10.9539 315.532 11.2179C315.148 11.4699 314.914 11.8479 314.83 12.3519H312.922C312.982 11.7039 313.198 11.1519 313.57 10.6959C313.954 10.2279 314.434 9.8739 315.01 9.6339C315.598 9.3819 316.24 9.2559 316.936 9.2559C318.184 9.2559 319.15 9.5859 319.834 10.2459C320.518 10.8939 320.86 11.7819 320.86 12.9099V18.3999H319.204L319.042 16.8699C318.79 17.3619 318.424 17.7759 317.944 18.1119C317.464 18.4479 316.834 18.6159 316.054 18.6159ZM316.432 17.0679C316.948 17.0679 317.38 16.9479 317.728 16.7079C318.088 16.4559 318.364 16.1259 318.556 15.7179C318.76 15.3099 318.886 14.8599 318.934 14.3679H316.81C316.054 14.3679 315.514 14.4999 315.19 14.7639C314.878 15.0279 314.722 15.3579 314.722 15.7539C314.722 16.1619 314.872 16.4859 315.172 16.7259C315.484 16.9539 315.904 17.0679 316.432 17.0679ZM327.153 18.6159C326.289 18.6159 325.527 18.4119 324.867 18.0039C324.207 17.5959 323.691 17.0379 323.319 16.3299C322.947 15.6219 322.761 14.8179 322.761 13.9179C322.761 13.0179 322.947 12.2199 323.319 11.5239C323.691 10.8159 324.207 10.2639 324.867 9.8679C325.539 9.4599 326.307 9.2559 327.171 9.2559C327.879 9.2559 328.497 9.3939 329.025 9.6699C329.565 9.9459 329.985 10.3359 330.285 10.8399V5.4399H332.193V18.3999H330.483L330.285 17.0139C329.997 17.4339 329.601 17.8059 329.097 18.1299C328.593 18.4539 327.945 18.6159 327.153 18.6159ZM327.495 16.9599C328.311 16.9599 328.977 16.6779 329.493 16.1139C330.021 15.5499 330.285 14.8239 330.285 13.9359C330.285 13.0359 330.021 12.3099 329.493 11.7579C328.977 11.1939 328.311 10.9119 327.495 10.9119C326.679 10.9119 326.007 11.1939 325.479 11.7579C324.951 12.3099 324.687 13.0359 324.687 13.9359C324.687 14.5239 324.807 15.0459 325.047 15.5019C325.287 15.9579 325.617 16.3179 326.037 16.5819C326.469 16.8339 326.955 16.9599 327.495 16.9599ZM338.163 18.6159C337.035 18.6159 336.105 18.3399 335.373 17.7879C334.641 17.2359 334.221 16.5039 334.113 15.5919H336.039C336.135 15.9999 336.363 16.3539 336.723 16.6539C337.083 16.9419 337.557 17.0859 338.145 17.0859C338.721 17.0859 339.141 16.9659 339.405 16.7259C339.669 16.4859 339.801 16.2099 339.801 15.8979C339.801 15.4419 339.615 15.1359 339.243 14.9799C338.883 14.8119 338.379 14.6619 337.731 14.5299C337.227 14.4219 336.723 14.2779 336.219 14.0979C335.727 13.9179 335.313 13.6659 334.977 13.3419C334.653 13.0059 334.491 12.5559 334.491 11.9919C334.491 11.2119 334.791 10.5639 335.391 10.0479C335.991 9.5199 336.831 9.2559 337.911 9.2559C338.907 9.2559 339.711 9.4959 340.323 9.9759C340.947 10.4559 341.313 11.1339 341.421 12.0099H339.585C339.525 11.6259 339.345 11.3259 339.045 11.1099C338.757 10.8939 338.367 10.7859 337.875 10.7859C337.395 10.7859 337.023 10.8879 336.759 11.0919C336.495 11.2839 336.363 11.5359 336.363 11.8479C336.363 12.1599 336.543 12.4059 336.903 12.5859C337.275 12.7659 337.761 12.9279 338.361 13.0719C338.961 13.2039 339.513 13.3599 340.017 13.5399C340.533 13.7079 340.947 13.9599 341.259 14.2959C341.571 14.6319 341.727 15.1239 341.727 15.7719C341.739 16.5879 341.421 17.2659 340.773 17.8059C340.137 18.3459 339.267 18.6159 338.163 18.6159Z" fill="#151439" fill-opacity="0.4"/>
<path d="M142.278 18.3999V5.7999H150.18V7.3479H144.186V11.3259H149.154V12.8559H144.186V18.3999H142.278ZM155.716 18.6159C154.84 18.6159 154.06 18.4239 153.376 18.0399C152.704 17.6439 152.176 17.0979 151.792 16.4019C151.408 15.7059 151.216 14.8959 151.216 13.9719C151.216 13.0359 151.402 12.2139 151.774 11.5059C152.158 10.7979 152.686 10.2459 153.358 9.8499C154.042 9.4539 154.834 9.2559 155.734 9.2559C156.61 9.2559 157.372 9.4539 158.02 9.8499C158.668 10.2339 159.172 10.7499 159.532 11.3979C159.892 12.0459 160.072 12.7599 160.072 13.5399C160.072 13.6599 160.066 13.7919 160.054 13.9359C160.054 14.0679 160.048 14.2179 160.036 14.3859H153.088C153.148 15.2499 153.43 15.9099 153.934 16.3659C154.45 16.8099 155.044 17.0319 155.716 17.0319C156.256 17.0319 156.706 16.9119 157.066 16.6719C157.438 16.4199 157.714 16.0839 157.894 15.6639H159.802C159.562 16.5039 159.082 17.2059 158.362 17.7699C157.654 18.3339 156.772 18.6159 155.716 18.6159ZM155.716 10.8219C155.08 10.8219 154.516 11.0139 154.024 11.3979C153.532 11.7699 153.232 12.3339 153.124 13.0899H158.164C158.128 12.3939 157.882 11.8419 157.426 11.4339C156.97 11.0259 156.4 10.8219 155.716 10.8219ZM165.076 18.6159C164.32 18.6159 163.696 18.4899 163.204 18.2379C162.712 17.9859 162.346 17.6559 162.106 17.2479C161.866 16.8279 161.746 16.3719 161.746 15.8799C161.746 15.0159 162.082 14.3319 162.754 13.8279C163.426 13.3239 164.386 13.0719 165.634 13.0719H167.974V12.9099C167.974 12.2139 167.782 11.6919 167.398 11.3439C167.026 10.9959 166.54 10.8219 165.94 10.8219C165.412 10.8219 164.95 10.9539 164.554 11.2179C164.17 11.4699 163.936 11.8479 163.852 12.3519H161.944C162.004 11.7039 162.22 11.1519 162.592 10.6959C162.976 10.2279 163.456 9.8739 164.032 9.6339C164.62 9.3819 165.262 9.2559 165.958 9.2559C167.206 9.2559 168.172 9.5859 168.856 10.2459C169.54 10.8939 169.882 11.7819 169.882 12.9099V18.3999H168.226L168.064 16.8699C167.812 17.3619 167.446 17.7759 166.966 18.1119C166.486 18.4479 165.856 18.6159 165.076 18.6159ZM165.454 17.0679C165.97 17.0679 166.402 16.9479 166.75 16.7079C167.11 16.4559 167.386 16.1259 167.578 15.7179C167.782 15.3099 167.908 14.8599 167.956 14.3679H165.832C165.076 14.3679 164.536 14.4999 164.212 14.7639C163.9 15.0279 163.744 15.3579 163.744 15.7539C163.744 16.1619 163.894 16.4859 164.194 16.7259C164.506 16.9539 164.926 17.0679 165.454 17.0679ZM175.675 18.3999C174.799 18.3999 174.103 18.1899 173.587 17.7699C173.071 17.3379 172.813 16.5759 172.813 15.4839V11.0739H171.283V9.4719H172.813L173.047 7.2039H174.721V9.4719H177.241V11.0739H174.721V15.4839C174.721 15.9759 174.823 16.3179 175.027 16.5099C175.243 16.6899 175.609 16.7799 176.125 16.7799H177.151V18.3999H175.675ZM187.416 9.4719V18.3999H185.724L185.58 16.8339C185.304 17.3859 184.896 17.8239 184.356 18.1479C183.828 18.4599 183.216 18.6159 182.52 18.6159C181.44 18.6159 180.588 18.2799 179.964 17.6079C179.352 16.9359 179.046 15.9339 179.046 14.6019V9.4719H180.936V14.4039C180.936 16.1319 181.644 16.9959 183.06 16.9959C183.768 16.9959 184.35 16.7439 184.806 16.2399C185.274 15.7359 185.508 15.0159 185.508 14.0799V9.4719H187.416ZM189.825 18.3999V9.4719H191.535L191.697 11.1639C192.009 10.5759 192.441 10.1139 192.993 9.7779C193.557 9.4299 194.235 9.2559 195.027 9.2559V11.2539H194.505C193.977 11.2539 193.503 11.3439 193.083 11.5239C192.675 11.6919 192.345 11.9859 192.093 12.4059C191.853 12.8139 191.733 13.3839 191.733 14.1159V18.3999H189.825ZM200.593 18.6159C199.717 18.6159 198.937 18.4239 198.253 18.0399C197.581 17.6439 197.053 17.0979 196.669 16.4019C196.285 15.7059 196.093 14.8959 196.093 13.9719C196.093 13.0359 196.279 12.2139 196.651 11.5059C197.035 10.7979 197.563 10.2459 198.235 9.8499C198.919 9.4539 199.711 9.2559 200.611 9.2559C201.487 9.2559 202.249 9.4539 202.897 9.8499C203.545 10.2339 204.049 10.7499 204.409 11.3979C204.769 12.0459 204.949 12.7599 204.949 13.5399C204.949 13.6599 204.943 13.7919 204.931 13.9359C204.931 14.0679 204.925 14.2179 204.913 14.3859H197.965C198.025 15.2499 198.307 15.9099 198.811 16.3659C199.327 16.8099 199.921 17.0319 200.593 17.0319C201.133 17.0319 201.583 16.9119 201.943 16.6719C202.315 16.4199 202.591 16.0839 202.771 15.6639H204.679C204.439 16.5039 203.959 17.2059 203.239 17.7699C202.531 18.3339 201.649 18.6159 200.593 18.6159ZM200.593 10.8219C199.957 10.8219 199.393 11.0139 198.901 11.3979C198.409 11.7699 198.109 12.3339 198.001 13.0899H203.041C203.005 12.3939 202.759 11.8419 202.303 11.4339C201.847 11.0259 201.277 10.8219 200.593 10.8219ZM210.493 18.6159C209.365 18.6159 208.435 18.3399 207.703 17.7879C206.971 17.2359 206.551 16.5039 206.443 15.5919H208.369C208.465 15.9999 208.693 16.3539 209.053 16.6539C209.413 16.9419 209.887 17.0859 210.475 17.0859C211.051 17.0859 211.471 16.9659 211.735 16.7259C211.999 16.4859 212.131 16.2099 212.131 15.8979C212.131 15.4419 211.945 15.1359 211.573 14.9799C211.213 14.8119 210.709 14.6619 210.061 14.5299C209.557 14.4219 209.053 14.2779 208.549 14.0979C208.057 13.9179 207.643 13.6659 207.307 13.3419C206.983 13.0059 206.821 12.5559 206.821 11.9919C206.821 11.2119 207.121 10.5639 207.721 10.0479C208.321 9.5199 209.161 9.2559 210.241 9.2559C211.237 9.2559 212.041 9.4959 212.653 9.9759C213.277 10.4559 213.643 11.1339 213.751 12.0099H211.915C211.855 11.6259 211.675 11.3259 211.375 11.1099C211.087 10.8939 210.697 10.7859 210.205 10.7859C209.725 10.7859 209.353 10.8879 209.089 11.0919C208.825 11.2839 208.693 11.5359 208.693 11.8479C208.693 12.1599 208.873 12.4059 209.233 12.5859C209.605 12.7659 210.091 12.9279 210.691 13.0719C211.291 13.2039 211.843 13.3599 212.347 13.5399C212.863 13.7079 213.277 13.9599 213.589 14.2959C213.901 14.6319 214.057 15.1239 214.057 15.7719C214.069 16.5879 213.751 17.2659 213.103 17.8059C212.467 18.3459 211.597 18.6159 210.493 18.6159Z" fill="#151439" fill-opacity="0.4"/>
<path d="M9.60304 19.288C8.37104 19.288 7.28304 19.08 6.33904 18.664C5.39504 18.232 4.65104 17.624 4.10704 16.84C3.56304 16.04 3.28304 15.072 3.26704 13.936H6.50704C6.53904 14.72 6.81904 15.384 7.34704 15.928C7.89104 16.456 8.63504 16.72 9.57904 16.72C10.395 16.72 11.043 16.528 11.523 16.144C12.003 15.744 12.243 15.216 12.243 14.56C12.243 13.872 12.027 13.336 11.595 12.952C11.179 12.568 10.619 12.256 9.91504 12.016C9.21104 11.776 8.45904 11.52 7.65904 11.248C6.36304 10.8 5.37104 10.224 4.68304 9.52C4.01104 8.816 3.67504 7.88 3.67504 6.712C3.65904 5.72 3.89104 4.872 4.37104 4.168C4.86704 3.448 5.53904 2.896 6.38704 2.512C7.23504 2.112 8.21104 1.912 9.31504 1.912C10.435 1.912 11.419 2.112 12.267 2.512C13.131 2.912 13.803 3.472 14.283 4.192C14.779 4.912 15.043 5.768 15.075 6.76H11.787C11.771 6.168 11.539 5.648 11.091 5.2C10.659 4.736 10.051 4.504 9.26704 4.504C8.59504 4.488 8.02704 4.656 7.56304 5.008C7.11504 5.344 6.89104 5.84 6.89104 6.496C6.89104 7.056 7.06704 7.504 7.41904 7.84C7.77104 8.16 8.25104 8.432 8.85904 8.656C9.46704 8.88 10.163 9.12 10.947 9.376C11.779 9.664 12.539 10 13.227 10.384C13.915 10.768 14.467 11.28 14.883 11.92C15.299 12.544 15.507 13.352 15.507 14.344C15.507 15.224 15.283 16.04 14.835 16.792C14.387 17.544 13.723 18.152 12.843 18.616C11.963 19.064 10.883 19.288 9.60304 19.288ZM23.1267 19C21.8787 19 20.8787 18.696 20.1267 18.088C19.3747 17.48 18.9987 16.4 18.9987 14.848V9.664H16.9587V7.096H18.9987L19.3587 3.904H22.0707V7.096H25.2867V9.664H22.0707V14.872C22.0707 15.448 22.1907 15.848 22.4307 16.072C22.6867 16.28 23.1187 16.384 23.7267 16.384H25.2147V19H23.1267ZM31.7356 19.288C30.7116 19.288 29.8716 19.128 29.2156 18.808C28.5596 18.472 28.0716 18.032 27.7516 17.488C27.4316 16.944 27.2716 16.344 27.2716 15.688C27.2716 14.584 27.7036 13.688 28.5676 13C29.4316 12.312 30.7276 11.968 32.4556 11.968H35.4796V11.68C35.4796 10.864 35.2476 10.264 34.7836 9.88C34.3196 9.496 33.7436 9.304 33.0556 9.304C32.4316 9.304 31.8876 9.456 31.4236 9.76C30.9596 10.048 30.6716 10.48 30.5596 11.056H27.5596C27.6396 10.192 27.9276 9.44 28.4236 8.8C28.9356 8.16 29.5916 7.672 30.3916 7.336C31.1916 6.984 32.0876 6.808 33.0796 6.808C34.7756 6.808 36.1116 7.232 37.0876 8.08C38.0636 8.928 38.5516 10.128 38.5516 11.68V19H35.9356L35.6476 17.08C35.2956 17.72 34.7996 18.248 34.1596 18.664C33.5356 19.08 32.7276 19.288 31.7356 19.288ZM32.4316 16.888C33.3116 16.888 33.9916 16.6 34.4716 16.024C34.9676 15.448 35.2796 14.736 35.4076 13.888H32.7916C31.9756 13.888 31.3916 14.04 31.0396 14.344C30.6876 14.632 30.5116 14.992 30.5116 15.424C30.5116 15.888 30.6876 16.248 31.0396 16.504C31.3916 16.76 31.8556 16.888 32.4316 16.888ZM41.1904 19V7.096H43.9264L44.2144 9.328C44.6464 8.56 45.2304 7.952 45.9664 7.504C46.7184 7.04 47.5984 6.808 48.6064 6.808V10.048H47.7424C47.0704 10.048 46.4704 10.152 45.9424 10.36C45.4144 10.568 44.9984 10.928 44.6944 11.44C44.4064 11.952 44.2624 12.664 44.2624 13.576V19H41.1904ZM55.7174 19C54.4694 19 53.4694 18.696 52.7174 18.088C51.9654 17.48 51.5894 16.4 51.5894 14.848V9.664H49.5494V7.096H51.5894L51.9494 3.904H54.6614V7.096H57.8774V9.664H54.6614V14.872C54.6614 15.448 54.7814 15.848 55.0214 16.072C55.2774 16.28 55.7094 16.384 56.3174 16.384H57.8054V19H55.7174ZM71.6943 7.096V19H68.9823L68.7423 16.984C68.3743 17.688 67.8383 18.248 67.1343 18.664C66.4463 19.08 65.6303 19.288 64.6863 19.288C63.2143 19.288 62.0703 18.824 61.2543 17.896C60.4383 16.968 60.0303 15.608 60.0303 13.816V7.096H63.1023V13.528C63.1023 14.552 63.3103 15.336 63.7263 15.88C64.1423 16.424 64.7903 16.696 65.6703 16.696C66.5343 16.696 67.2383 16.392 67.7823 15.784C68.3423 15.176 68.6223 14.328 68.6223 13.24V7.096H71.6943ZM74.5311 24.28V7.096H77.2671L77.6031 8.8C77.9871 8.272 78.4911 7.808 79.1151 7.408C79.7551 7.008 80.5791 6.808 81.5871 6.808C82.7071 6.808 83.7071 7.08 84.5871 7.624C85.4671 8.168 86.1631 8.912 86.6751 9.856C87.1871 10.8 87.4431 11.872 87.4431 13.072C87.4431 14.272 87.1871 15.344 86.6751 16.288C86.1631 17.216 85.4671 17.952 84.5871 18.496C83.7071 19.024 82.7071 19.288 81.5871 19.288C80.6911 19.288 79.9071 19.12 79.2351 18.784C78.5631 18.448 78.0191 17.976 77.6031 17.368V24.28H74.5311ZM80.9391 16.6C81.9151 16.6 82.7231 16.272 83.3631 15.616C84.0031 14.96 84.3231 14.112 84.3231 13.072C84.3231 12.032 84.0031 11.176 83.3631 10.504C82.7231 9.832 81.9151 9.496 80.9391 9.496C79.9471 9.496 79.1311 9.832 78.4911 10.504C77.8671 11.16 77.5551 12.008 77.5551 13.048C77.5551 14.088 77.8671 14.944 78.4911 15.616C79.1311 16.272 79.9471 16.6 80.9391 16.6ZM100.889 19.288C99.7848 19.288 98.7848 19.096 97.8888 18.712C96.9928 18.312 96.2728 17.704 95.7288 16.888C95.1848 16.072 94.8968 15.048 94.8648 13.816H97.8888C97.9048 14.632 98.1688 15.32 98.6808 15.88C99.2088 16.424 99.9448 16.696 100.889 16.696C101.785 16.696 102.473 16.448 102.953 15.952C103.433 15.456 103.673 14.832 103.673 14.08C103.673 13.2 103.353 12.536 102.713 12.088C102.089 11.624 101.281 11.392 100.289 11.392H99.0408V8.872H100.313C101.129 8.872 101.809 8.68 102.353 8.296C102.897 7.912 103.169 7.344 103.169 6.592C103.169 5.968 102.961 5.472 102.545 5.104C102.145 4.72 101.585 4.528 100.865 4.528C100.081 4.528 99.4648 4.76 99.0168 5.224C98.5848 5.688 98.3448 6.256 98.2968 6.928H95.2968C95.3608 5.376 95.8968 4.152 96.9048 3.256C97.9288 2.36 99.2488 1.912 100.865 1.912C102.017 1.912 102.985 2.12 103.769 2.536C104.569 2.936 105.169 3.472 105.569 4.144C105.985 4.816 106.193 5.56 106.193 6.376C106.193 7.32 105.929 8.12 105.401 8.776C104.889 9.416 104.249 9.848 103.481 10.072C104.425 10.264 105.193 10.728 105.785 11.464C106.377 12.184 106.673 13.096 106.673 14.2C106.673 15.128 106.449 15.976 106.001 16.744C105.553 17.512 104.897 18.128 104.033 18.592C103.185 19.056 102.137 19.288 100.889 19.288Z" fill="#1E0E62"/>
</svg>
