<svg width="728" height="113" viewBox="0 0 728 113" fill="none" xmlns="http://www.w3.org/2000/svg">
<path d="M16.1546 42.696C13.1773 42.696 10.548 42.1933 8.26663 41.188C5.9853 40.144 4.1873 38.6747 2.87263 36.78C1.55797 34.8467 0.8813 32.5073 0.842633 29.762H8.67263C8.74997 31.6567 9.42663 33.2613 10.7026 34.576C12.0173 35.852 13.8153 36.49 16.0966 36.49C18.0686 36.49 19.6346 36.026 20.7946 35.098C21.9546 34.1313 22.5346 32.8553 22.5346 31.27C22.5346 29.6073 22.0126 28.312 20.9686 27.384C19.9633 26.456 18.61 25.702 16.9086 25.122C15.2073 24.542 13.39 23.9233 11.4566 23.266C8.32463 22.1833 5.9273 20.7913 4.26463 19.09C2.64063 17.3887 1.82863 15.1267 1.82863 12.304C1.78997 9.90667 2.35063 7.85733 3.51063 6.156C4.7093 4.416 6.3333 3.082 8.38263 2.154C10.432 1.18733 12.7906 0.703999 15.4586 0.703999C18.1653 0.703999 20.5433 1.18733 22.5926 2.154C24.6806 3.12066 26.3046 4.474 27.4646 6.214C28.6633 7.954 29.3013 10.0227 29.3786 12.42H21.4326C21.394 10.9893 20.8333 9.73266 19.7506 8.65C18.7066 7.52866 17.2373 6.968 15.3426 6.968C13.7186 6.92933 12.346 7.33533 11.2246 8.186C10.142 8.998 9.60063 10.1967 9.60063 11.782C9.60063 13.1353 10.026 14.218 10.8766 15.03C11.7273 15.8033 12.8873 16.4607 14.3566 17.002C15.826 17.5433 17.508 18.1233 19.4026 18.742C21.4133 19.438 23.25 20.25 24.9126 21.178C26.5753 22.106 27.9093 23.3433 28.9146 24.89C29.92 26.398 30.4226 28.3507 30.4226 30.748C30.4226 32.8747 29.8813 34.8467 28.7986 36.664C27.716 38.4813 26.1113 39.9507 23.9846 41.072C21.858 42.1547 19.248 42.696 16.1546 42.696ZM39.7281 8.766C38.3747 8.766 37.2534 8.36 36.3641 7.548C35.5134 6.736 35.0881 5.71133 35.0881 4.474C35.0881 3.23667 35.5134 2.23133 36.3641 1.458C37.2534 0.645998 38.3747 0.239998 39.7281 0.239998C41.0814 0.239998 42.1834 0.645998 43.0341 1.458C43.9234 2.23133 44.3681 3.23667 44.3681 4.474C44.3681 5.71133 43.9234 6.736 43.0341 7.548C42.1834 8.36 41.0814 8.766 39.7281 8.766ZM36.0161 42V13.232H43.4401V42H36.0161ZM50.1889 42V13.232H56.7429L57.3809 17.118C58.3089 15.726 59.5269 14.624 61.0349 13.812C62.5816 12.9613 64.3603 12.536 66.3709 12.536C70.8176 12.536 73.9689 14.2567 75.8249 17.698C76.8689 16.1127 78.2609 14.856 80.0009 13.928C81.7796 13 83.7129 12.536 85.8009 12.536C89.5516 12.536 92.4323 13.6573 94.4429 15.9C96.4536 18.1427 97.4589 21.4293 97.4589 25.76V42H90.0349V26.456C90.0349 23.9813 89.5516 22.0867 88.5849 20.772C87.6569 19.4573 86.2069 18.8 84.2349 18.8C82.2243 18.8 80.6003 19.5347 79.3629 21.004C78.1643 22.4733 77.5649 24.5227 77.5649 27.152V42H70.1409V26.456C70.1409 23.9813 69.6576 22.0867 68.6909 20.772C67.7243 19.4573 66.2356 18.8 64.2249 18.8C62.2529 18.8 60.6483 19.5347 59.4109 21.004C58.2123 22.4733 57.6129 24.5227 57.6129 27.152V42H50.1889ZM103.507 54.76V13.232H110.119L110.931 17.35C111.859 16.074 113.077 14.9527 114.585 13.986C116.132 13.0193 118.123 12.536 120.559 12.536C123.266 12.536 125.683 13.1933 127.809 14.508C129.936 15.8227 131.618 17.6207 132.855 19.902C134.093 22.1833 134.711 24.774 134.711 27.674C134.711 30.574 134.093 33.1647 132.855 35.446C131.618 37.6887 129.936 39.4673 127.809 40.782C125.683 42.058 123.266 42.696 120.559 42.696C118.394 42.696 116.499 42.29 114.875 41.478C113.251 40.666 111.937 39.5253 110.931 38.056V54.76H103.507ZM118.993 36.2C121.352 36.2 123.305 35.4073 124.851 33.822C126.398 32.2367 127.171 30.1873 127.171 27.674C127.171 25.1607 126.398 23.092 124.851 21.468C123.305 19.844 121.352 19.032 118.993 19.032C116.596 19.032 114.624 19.844 113.077 21.468C111.569 23.0533 110.815 25.1027 110.815 27.616C110.815 30.1293 111.569 32.198 113.077 33.822C114.624 35.4073 116.596 36.2 118.993 36.2ZM140.343 42V0.239998H147.767V42H140.343ZM168.331 42.696C165.431 42.696 162.86 42.0773 160.617 40.84C158.374 39.6027 156.615 37.8627 155.339 35.62C154.063 33.3773 153.425 30.7867 153.425 27.848C153.425 24.8707 154.044 22.222 155.281 19.902C156.557 17.582 158.297 15.784 160.501 14.508C162.744 13.1933 165.373 12.536 168.389 12.536C171.212 12.536 173.706 13.1547 175.871 14.392C178.036 15.6293 179.718 17.3307 180.917 19.496C182.154 21.6227 182.773 24.0007 182.773 26.63C182.773 27.0553 182.754 27.5 182.715 27.964C182.715 28.428 182.696 28.9113 182.657 29.414H160.791C160.946 31.6567 161.719 33.416 163.111 34.692C164.542 35.968 166.262 36.606 168.273 36.606C169.781 36.606 171.038 36.2773 172.043 35.62C173.087 34.924 173.86 34.0347 174.363 32.952H181.903C181.362 34.7693 180.453 36.432 179.177 37.94C177.94 39.4093 176.393 40.5693 174.537 41.42C172.72 42.2707 170.651 42.696 168.331 42.696ZM168.389 18.568C166.572 18.568 164.967 19.09 163.575 20.134C162.183 21.1393 161.294 22.686 160.907 24.774H175.233C175.117 22.8793 174.421 21.3713 173.145 20.25C171.869 19.1287 170.284 18.568 168.389 18.568ZM210.755 42.696C208.281 42.696 206.251 42.3093 204.665 41.536C203.08 40.724 201.901 39.6607 201.127 38.346C200.354 37.0313 199.967 35.5813 199.967 33.996C199.967 31.328 201.011 29.1627 203.099 27.5C205.187 25.8373 208.319 25.006 212.495 25.006H219.803V24.31C219.803 22.338 219.243 20.888 218.121 19.96C217 19.032 215.608 18.568 213.945 18.568C212.437 18.568 211.123 18.9353 210.001 19.67C208.88 20.366 208.184 21.41 207.913 22.802H200.663C200.857 20.714 201.553 18.8967 202.751 17.35C203.989 15.8033 205.574 14.624 207.507 13.812C209.441 12.9613 211.606 12.536 214.003 12.536C218.102 12.536 221.331 13.5607 223.689 15.61C226.048 17.6593 227.227 20.5593 227.227 24.31V42H220.905L220.209 37.36C219.359 38.9067 218.16 40.1827 216.613 41.188C215.105 42.1933 213.153 42.696 210.755 42.696ZM212.437 36.896C214.564 36.896 216.207 36.2 217.367 34.808C218.566 33.416 219.32 31.6953 219.629 29.646H213.307C211.335 29.646 209.924 30.0133 209.073 30.748C208.223 31.444 207.797 32.314 207.797 33.358C207.797 34.4793 208.223 35.3493 209.073 35.968C209.924 36.5867 211.045 36.896 212.437 36.896ZM233.312 42V13.232H239.866L240.446 18.104C241.335 16.4027 242.611 15.0493 244.274 14.044C245.975 13.0387 247.967 12.536 250.248 12.536C253.805 12.536 256.57 13.6573 258.542 15.9C260.514 18.1427 261.5 21.4293 261.5 25.76V42H254.076V26.456C254.076 23.9813 253.573 22.0867 252.568 20.772C251.563 19.4573 249.997 18.8 247.87 18.8C245.782 18.8 244.061 19.5347 242.708 21.004C241.393 22.4733 240.736 24.5227 240.736 27.152V42H233.312ZM280.823 42.696C278.116 42.696 275.7 42.0387 273.573 40.724C271.446 39.4093 269.764 37.6113 268.527 35.33C267.29 33.0487 266.671 30.458 266.671 27.558C266.671 24.658 267.29 22.0867 268.527 19.844C269.764 17.5627 271.446 15.784 273.573 14.508C275.7 13.1933 278.116 12.536 280.823 12.536C282.988 12.536 284.883 12.942 286.507 13.754C288.131 14.566 289.446 15.7067 290.451 17.176V0.239998H297.875V42H291.263L290.451 37.882C289.523 39.158 288.286 40.2793 286.739 41.246C285.231 42.2127 283.259 42.696 280.823 42.696ZM282.389 36.2C284.786 36.2 286.739 35.4073 288.247 33.822C289.794 32.198 290.567 30.1293 290.567 27.616C290.567 25.1027 289.794 23.0533 288.247 21.468C286.739 19.844 284.786 19.032 282.389 19.032C280.03 19.032 278.078 19.8247 276.531 21.41C274.984 22.9953 274.211 25.0447 274.211 27.558C274.211 30.0713 274.984 32.14 276.531 33.764C278.078 35.388 280.03 36.2 282.389 36.2ZM334.307 42.696C332.142 42.696 330.247 42.29 328.623 41.478C326.999 40.666 325.685 39.5253 324.679 38.056L323.867 42H317.255V0.239998H324.679V17.35C325.607 16.074 326.825 14.9527 328.333 13.986C329.88 13.0193 331.871 12.536 334.307 12.536C337.014 12.536 339.431 13.1933 341.557 14.508C343.684 15.8227 345.366 17.6207 346.603 19.902C347.841 22.1833 348.459 24.774 348.459 27.674C348.459 30.574 347.841 33.1647 346.603 35.446C345.366 37.6887 343.684 39.4673 341.557 40.782C339.431 42.058 337.014 42.696 334.307 42.696ZM332.741 36.2C335.1 36.2 337.053 35.4073 338.599 33.822C340.146 32.2367 340.919 30.1873 340.919 27.674C340.919 25.1607 340.146 23.092 338.599 21.468C337.053 19.844 335.1 19.032 332.741 19.032C330.344 19.032 328.372 19.844 326.825 21.468C325.317 23.0533 324.563 25.1027 324.563 27.616C324.563 30.1293 325.317 32.198 326.825 33.822C328.372 35.4073 330.344 36.2 332.741 36.2ZM368.069 42.696C365.169 42.696 362.598 42.0773 360.355 40.84C358.113 39.6027 356.353 37.8627 355.077 35.62C353.801 33.3773 353.163 30.7867 353.163 27.848C353.163 24.8707 353.782 22.222 355.019 19.902C356.295 17.582 358.035 15.784 360.239 14.508C362.482 13.1933 365.111 12.536 368.127 12.536C370.95 12.536 373.444 13.1547 375.609 14.392C377.775 15.6293 379.457 17.3307 380.655 19.496C381.893 21.6227 382.511 24.0007 382.511 26.63C382.511 27.0553 382.492 27.5 382.453 27.964C382.453 28.428 382.434 28.9113 382.395 29.414H360.529C360.684 31.6567 361.457 33.416 362.849 34.692C364.28 35.968 366.001 36.606 368.011 36.606C369.519 36.606 370.776 36.2773 371.781 35.62C372.825 34.924 373.599 34.0347 374.101 32.952H381.641C381.1 34.7693 380.191 36.432 378.915 37.94C377.678 39.4093 376.131 40.5693 374.275 41.42C372.458 42.2707 370.389 42.696 368.069 42.696ZM368.127 18.568C366.31 18.568 364.705 19.09 363.313 20.134C361.921 21.1393 361.032 22.686 360.645 24.774H374.971C374.855 22.8793 374.159 21.3713 372.883 20.25C371.607 19.1287 370.022 18.568 368.127 18.568ZM397.673 42.696C395.199 42.696 393.169 42.3093 391.583 41.536C389.998 40.724 388.819 39.6607 388.045 38.346C387.272 37.0313 386.885 35.5813 386.885 33.996C386.885 31.328 387.929 29.1627 390.017 27.5C392.105 25.8373 395.237 25.006 399.413 25.006H406.721V24.31C406.721 22.338 406.161 20.888 405.039 19.96C403.918 19.032 402.526 18.568 400.863 18.568C399.355 18.568 398.041 18.9353 396.919 19.67C395.798 20.366 395.102 21.41 394.831 22.802H387.581C387.775 20.714 388.471 18.8967 389.669 17.35C390.907 15.8033 392.492 14.624 394.425 13.812C396.359 12.9613 398.524 12.536 400.921 12.536C405.02 12.536 408.249 13.5607 410.607 15.61C412.966 17.6593 414.145 20.5593 414.145 24.31V42H407.823L407.127 37.36C406.277 38.9067 405.078 40.1827 403.531 41.188C402.023 42.1933 400.071 42.696 397.673 42.696ZM399.355 36.896C401.482 36.896 403.125 36.2 404.285 34.808C405.484 33.416 406.238 31.6953 406.547 29.646H400.225C398.253 29.646 396.842 30.0133 395.991 30.748C395.141 31.444 394.715 32.314 394.715 33.358C394.715 34.4793 395.141 35.3493 395.991 35.968C396.842 36.5867 397.963 36.896 399.355 36.896ZM447.954 13.232V42H441.4L440.82 37.128C439.931 38.8293 438.635 40.1827 436.934 41.188C435.271 42.1933 433.299 42.696 431.018 42.696C427.461 42.696 424.696 41.5747 422.724 39.332C420.752 37.0893 419.766 33.8027 419.766 29.472V13.232H427.19V28.776C427.19 31.2507 427.693 33.1453 428.698 34.46C429.703 35.7747 431.269 36.432 433.396 36.432C435.484 36.432 437.185 35.6973 438.5 34.228C439.853 32.7587 440.53 30.7093 440.53 28.08V13.232H447.954ZM467.335 42C464.319 42 461.902 41.2653 460.085 39.796C458.268 38.3267 457.359 35.7167 457.359 31.966V19.438H452.429V13.232H457.359L458.229 5.518H464.783V13.232H472.555V19.438H464.783V32.024C464.783 33.416 465.073 34.3827 465.653 34.924C466.272 35.4267 467.316 35.678 468.785 35.678H472.381V42H467.335ZM481.931 8.766C480.578 8.766 479.457 8.36 478.567 7.548C477.717 6.736 477.291 5.71133 477.291 4.474C477.291 3.23667 477.717 2.23133 478.567 1.458C479.457 0.645998 480.578 0.239998 481.931 0.239998C483.285 0.239998 484.387 0.645998 485.237 1.458C486.127 2.23133 486.571 3.23667 486.571 4.474C486.571 5.71133 486.127 6.736 485.237 7.548C484.387 8.36 483.285 8.766 481.931 8.766ZM478.219 42V13.232H485.643V42H478.219ZM493.726 42V19.438H489.782V13.232H493.726V9.868C493.726 6.388 494.596 3.91333 496.336 2.444C498.115 0.974665 500.512 0.239998 503.528 0.239998H506.718V6.562H504.688C503.412 6.562 502.503 6.81333 501.962 7.316C501.421 7.81866 501.15 8.66933 501.15 9.868V13.232H507.356V19.438H501.15V42H493.726ZM539.96 13.232V42H533.406L532.826 37.128C531.936 38.8293 530.641 40.1827 528.94 41.188C527.277 42.1933 525.305 42.696 523.024 42.696C519.466 42.696 516.702 41.5747 514.73 39.332C512.758 37.0893 511.772 33.8027 511.772 29.472V13.232H519.196V28.776C519.196 31.2507 519.698 33.1453 520.704 34.46C521.709 35.7747 523.275 36.432 525.402 36.432C527.49 36.432 529.191 35.6973 530.506 34.228C531.859 32.7587 532.536 30.7093 532.536 28.08V13.232H539.96ZM546.523 42V0.239998H553.947V42H546.523ZM573.353 42V13.232H579.965L580.661 18.626C581.705 16.77 583.116 15.3007 584.895 14.218C586.712 13.0967 588.839 12.536 591.275 12.536V20.366H589.187C587.563 20.366 586.113 20.6173 584.837 21.12C583.561 21.6227 582.556 22.4927 581.821 23.73C581.125 24.9673 580.777 26.688 580.777 28.892V42H573.353ZM608.817 42.696C605.917 42.696 603.346 42.0773 601.103 40.84C598.861 39.6027 597.101 37.8627 595.825 35.62C594.549 33.3773 593.911 30.7867 593.911 27.848C593.911 24.8707 594.53 22.222 595.767 19.902C597.043 17.582 598.783 15.784 600.987 14.508C603.23 13.1933 605.859 12.536 608.875 12.536C611.698 12.536 614.192 13.1547 616.357 14.392C618.523 15.6293 620.205 17.3307 621.403 19.496C622.641 21.6227 623.259 24.0007 623.259 26.63C623.259 27.0553 623.24 27.5 623.201 27.964C623.201 28.428 623.182 28.9113 623.143 29.414H601.277C601.432 31.6567 602.205 33.416 603.597 34.692C605.028 35.968 606.749 36.606 608.759 36.606C610.267 36.606 611.524 36.2773 612.529 35.62C613.573 34.924 614.347 34.0347 614.849 32.952H622.389C621.848 34.7693 620.939 36.432 619.663 37.94C618.426 39.4093 616.879 40.5693 615.023 41.42C613.206 42.2707 611.137 42.696 608.817 42.696ZM608.875 18.568C607.058 18.568 605.453 19.09 604.061 20.134C602.669 21.1393 601.78 22.686 601.393 24.774H615.719C615.603 22.8793 614.907 21.3713 613.631 20.25C612.355 19.1287 610.77 18.568 608.875 18.568ZM638.421 42.696C635.947 42.696 633.917 42.3093 632.331 41.536C630.746 40.724 629.567 39.6607 628.793 38.346C628.02 37.0313 627.633 35.5813 627.633 33.996C627.633 31.328 628.677 29.1627 630.765 27.5C632.853 25.8373 635.985 25.006 640.161 25.006H647.469V24.31C647.469 22.338 646.909 20.888 645.787 19.96C644.666 19.032 643.274 18.568 641.611 18.568C640.103 18.568 638.789 18.9353 637.667 19.67C636.546 20.366 635.85 21.41 635.579 22.802H628.329C628.523 20.714 629.219 18.8967 630.417 17.35C631.655 15.8033 633.24 14.624 635.173 13.812C637.107 12.9613 639.272 12.536 641.669 12.536C645.768 12.536 648.997 13.5607 651.355 15.61C653.714 17.6593 654.893 20.5593 654.893 24.31V42H648.571L647.875 37.36C647.025 38.9067 645.826 40.1827 644.279 41.188C642.771 42.1933 640.819 42.696 638.421 42.696ZM640.103 36.896C642.23 36.896 643.873 36.2 645.033 34.808C646.232 33.416 646.986 31.6953 647.295 29.646H640.973C639.001 29.646 637.59 30.0133 636.739 30.748C635.889 31.444 635.463 32.314 635.463 33.358C635.463 34.4793 635.889 35.3493 636.739 35.968C637.59 36.5867 638.711 36.896 640.103 36.896ZM674.202 42.696C671.495 42.696 669.079 42.0387 666.952 40.724C664.825 39.4093 663.143 37.6113 661.906 35.33C660.669 33.0487 660.05 30.458 660.05 27.558C660.05 24.658 660.669 22.0867 661.906 19.844C663.143 17.5627 664.825 15.784 666.952 14.508C669.079 13.1933 671.495 12.536 674.202 12.536C676.367 12.536 678.262 12.942 679.886 13.754C681.51 14.566 682.825 15.7067 683.83 17.176V0.239998H691.254V42H684.642L683.83 37.882C682.902 39.158 681.665 40.2793 680.118 41.246C678.61 42.2127 676.638 42.696 674.202 42.696ZM675.768 36.2C678.165 36.2 680.118 35.4073 681.626 33.822C683.173 32.198 683.946 30.1293 683.946 27.616C683.946 25.1027 683.173 23.0533 681.626 21.468C680.118 19.844 678.165 19.032 675.768 19.032C673.409 19.032 671.457 19.8247 669.91 21.41C668.363 22.9953 667.59 25.0447 667.59 27.558C667.59 30.0713 668.363 32.14 669.91 33.764C671.457 35.388 673.409 36.2 675.768 36.2ZM701.41 54.76L708.08 40.086H706.34L695.146 13.232H703.208L711.27 33.474L719.68 13.232H727.568L709.298 54.76H701.41ZM179.722 112V89.438H175.778V83.232H179.722V79.868C179.722 76.388 180.592 73.9133 182.332 72.444C184.111 70.9747 186.508 70.24 189.524 70.24H192.714V76.562H190.684C189.408 76.562 188.499 76.8133 187.958 77.316C187.417 77.8187 187.146 78.6693 187.146 79.868V83.232H193.352V89.438H187.146V112H179.722ZM210.903 112.696C208.119 112.696 205.606 112.058 203.363 110.782C201.159 109.506 199.4 107.747 198.085 105.504C196.809 103.223 196.171 100.593 196.171 97.616C196.171 94.6387 196.828 92.0287 198.143 89.786C199.458 87.5047 201.217 85.726 203.421 84.45C205.664 83.174 208.177 82.536 210.961 82.536C213.706 82.536 216.181 83.174 218.385 84.45C220.628 85.726 222.387 87.5047 223.663 89.786C224.978 92.0287 225.635 94.6387 225.635 97.616C225.635 100.593 224.978 103.223 223.663 105.504C222.387 107.747 220.628 109.506 218.385 110.782C216.142 112.058 213.648 112.696 210.903 112.696ZM210.903 106.258C212.836 106.258 214.518 105.543 215.949 104.112C217.38 102.643 218.095 100.477 218.095 97.616C218.095 94.7547 217.38 92.6087 215.949 91.178C214.518 89.7087 212.856 88.974 210.961 88.974C208.989 88.974 207.288 89.7087 205.857 91.178C204.465 92.6087 203.769 94.7547 203.769 97.616C203.769 100.477 204.465 102.643 205.857 104.112C207.288 105.543 208.97 106.258 210.903 106.258ZM231.273 112V83.232H237.885L238.581 88.626C239.625 86.77 241.036 85.3007 242.815 84.218C244.632 83.0967 246.759 82.536 249.195 82.536V90.366H247.107C245.483 90.366 244.033 90.6173 242.757 91.12C241.481 91.6227 240.476 92.4927 239.741 93.73C239.045 94.9673 238.697 96.688 238.697 98.892V112H231.273ZM293.813 83.232V112H287.259L286.679 107.128C285.79 108.829 284.495 110.183 282.793 111.188C281.131 112.193 279.159 112.696 276.877 112.696C273.32 112.696 270.555 111.575 268.583 109.332C266.611 107.089 265.625 103.803 265.625 99.472V83.232H273.049V98.776C273.049 101.251 273.552 103.145 274.557 104.46C275.563 105.775 277.129 106.432 279.255 106.432C281.343 106.432 283.045 105.697 284.359 104.228C285.713 102.759 286.389 100.709 286.389 98.08V83.232H293.813ZM312.266 112.696C309.714 112.696 307.472 112.29 305.538 111.478C303.605 110.627 302.058 109.467 300.898 107.998C299.738 106.529 299.042 104.827 298.81 102.894H306.292C306.524 104.015 307.143 104.982 308.148 105.794C309.192 106.567 310.526 106.954 312.15 106.954C313.774 106.954 314.954 106.625 315.688 105.968C316.462 105.311 316.848 104.557 316.848 103.706C316.848 102.469 316.307 101.637 315.224 101.212C314.142 100.748 312.634 100.303 310.7 99.878C309.463 99.6073 308.206 99.2787 306.93 98.892C305.654 98.5053 304.475 98.022 303.392 97.442C302.348 96.8233 301.498 96.05 300.84 95.122C300.183 94.1553 299.854 92.976 299.854 91.584C299.854 89.032 300.86 86.886 302.87 85.146C304.92 83.406 307.781 82.536 311.454 82.536C314.857 82.536 317.564 83.3287 319.574 84.914C321.624 86.4993 322.842 88.684 323.228 91.468H316.21C315.785 89.3413 314.18 88.278 311.396 88.278C310.004 88.278 308.922 88.5487 308.148 89.09C307.414 89.6313 307.046 90.308 307.046 91.12C307.046 91.9707 307.607 92.6473 308.728 93.15C309.85 93.6527 311.338 94.1167 313.194 94.542C315.205 95.006 317.042 95.528 318.704 96.108C320.406 96.6493 321.759 97.4807 322.764 98.602C323.77 99.6847 324.272 101.251 324.272 103.3C324.311 105.079 323.847 106.683 322.88 108.114C321.914 109.545 320.522 110.666 318.704 111.478C316.887 112.29 314.741 112.696 312.266 112.696ZM343.827 112.696C340.927 112.696 338.356 112.077 336.113 110.84C333.87 109.603 332.111 107.863 330.835 105.62C329.559 103.377 328.921 100.787 328.921 97.848C328.921 94.8707 329.54 92.222 330.777 89.902C332.053 87.582 333.793 85.784 335.997 84.508C338.24 83.1933 340.869 82.536 343.885 82.536C346.708 82.536 349.202 83.1547 351.367 84.392C353.532 85.6293 355.214 87.3307 356.413 89.496C357.65 91.6227 358.269 94.0007 358.269 96.63C358.269 97.0553 358.25 97.5 358.211 97.964C358.211 98.428 358.192 98.9113 358.153 99.414H336.287C336.442 101.657 337.215 103.416 338.607 104.692C340.038 105.968 341.758 106.606 343.769 106.606C345.277 106.606 346.534 106.277 347.539 105.62C348.583 104.924 349.356 104.035 349.859 102.952H357.399C356.858 104.769 355.949 106.432 354.673 107.94C353.436 109.409 351.889 110.569 350.033 111.42C348.216 112.271 346.147 112.696 343.827 112.696ZM343.885 88.568C342.068 88.568 340.463 89.09 339.071 90.134C337.679 91.1393 336.79 92.686 336.403 94.774H350.729C350.613 92.8793 349.917 91.3713 348.641 90.25C347.365 89.1287 345.78 88.568 343.885 88.568ZM393.385 112.696C391.22 112.696 389.325 112.29 387.701 111.478C386.077 110.666 384.763 109.525 383.757 108.056L382.945 112H376.333V70.24H383.757V87.35C384.685 86.074 385.903 84.9527 387.411 83.986C388.958 83.0193 390.949 82.536 393.385 82.536C396.092 82.536 398.509 83.1933 400.635 84.508C402.762 85.8227 404.444 87.6207 405.681 89.902C406.919 92.1833 407.537 94.774 407.537 97.674C407.537 100.574 406.919 103.165 405.681 105.446C404.444 107.689 402.762 109.467 400.635 110.782C398.509 112.058 396.092 112.696 393.385 112.696ZM391.819 106.2C394.178 106.2 396.131 105.407 397.677 103.822C399.224 102.237 399.997 100.187 399.997 97.674C399.997 95.1607 399.224 93.092 397.677 91.468C396.131 89.844 394.178 89.032 391.819 89.032C389.422 89.032 387.45 89.844 385.903 91.468C384.395 93.0533 383.641 95.1027 383.641 97.616C383.641 100.129 384.395 102.198 385.903 103.822C387.45 105.407 389.422 106.2 391.819 106.2ZM413.169 112V70.24H420.593V112H413.169ZM440.983 112.696C438.199 112.696 435.686 112.058 433.443 110.782C431.239 109.506 429.48 107.747 428.165 105.504C426.889 103.223 426.251 100.593 426.251 97.616C426.251 94.6387 426.909 92.0287 428.223 89.786C429.538 87.5047 431.297 85.726 433.501 84.45C435.744 83.174 438.257 82.536 441.041 82.536C443.787 82.536 446.261 83.174 448.465 84.45C450.708 85.726 452.467 87.5047 453.743 89.786C455.058 92.0287 455.715 94.6387 455.715 97.616C455.715 100.593 455.058 103.223 453.743 105.504C452.467 107.747 450.708 109.506 448.465 110.782C446.223 112.058 443.729 112.696 440.983 112.696ZM440.983 106.258C442.917 106.258 444.599 105.543 446.029 104.112C447.46 102.643 448.175 100.477 448.175 97.616C448.175 94.7547 447.46 92.6087 446.029 91.178C444.599 89.7087 442.936 88.974 441.041 88.974C439.069 88.974 437.368 89.7087 435.937 91.178C434.545 92.6087 433.849 94.7547 433.849 97.616C433.849 100.477 434.545 102.643 435.937 104.112C437.368 105.543 439.05 106.258 440.983 106.258ZM475.447 112.696C472.508 112.696 469.918 112.058 467.675 110.782C465.432 109.506 463.654 107.727 462.339 105.446C461.063 103.165 460.425 100.555 460.425 97.616C460.425 94.6773 461.063 92.0673 462.339 89.786C463.654 87.5047 465.432 85.726 467.675 84.45C469.918 83.174 472.508 82.536 475.447 82.536C479.12 82.536 482.214 83.5027 484.727 85.436C487.24 87.3307 488.845 89.96 489.541 93.324H481.711C481.324 91.932 480.551 90.8493 479.391 90.076C478.27 89.264 476.936 88.858 475.389 88.858C473.34 88.858 471.6 89.6313 470.169 91.178C468.738 92.7247 468.023 94.8707 468.023 97.616C468.023 100.361 468.738 102.507 470.169 104.054C471.6 105.601 473.34 106.374 475.389 106.374C476.936 106.374 478.27 105.987 479.391 105.214C480.551 104.441 481.324 103.339 481.711 101.908H489.541C488.845 105.156 487.24 107.766 484.727 109.738C482.214 111.71 479.12 112.696 475.447 112.696ZM495.13 112V70.24H502.554V94.89L512.762 83.232H521.578L509.804 96.34L523.492 112H514.212L502.554 97.558V112H495.13ZM537.569 112.696C535.017 112.696 532.775 112.29 530.841 111.478C528.908 110.627 527.361 109.467 526.201 107.998C525.041 106.529 524.345 104.827 524.113 102.894H531.595C531.827 104.015 532.446 104.982 533.451 105.794C534.495 106.567 535.829 106.954 537.453 106.954C539.077 106.954 540.257 106.625 540.991 105.968C541.765 105.311 542.151 104.557 542.151 103.706C542.151 102.469 541.61 101.637 540.527 101.212C539.445 100.748 537.937 100.303 536.003 99.878C534.766 99.6073 533.509 99.2787 532.233 98.892C530.957 98.5053 529.778 98.022 528.695 97.442C527.651 96.8233 526.801 96.05 526.143 95.122C525.486 94.1553 525.157 92.976 525.157 91.584C525.157 89.032 526.163 86.886 528.173 85.146C530.223 83.406 533.084 82.536 536.757 82.536C540.16 82.536 542.867 83.3287 544.877 84.914C546.927 86.4993 548.145 88.684 548.531 91.468H541.513C541.088 89.3413 539.483 88.278 536.699 88.278C535.307 88.278 534.225 88.5487 533.451 89.09C532.717 89.6313 532.349 90.308 532.349 91.12C532.349 91.9707 532.91 92.6473 534.031 93.15C535.153 93.6527 536.641 94.1167 538.497 94.542C540.508 95.006 542.345 95.528 544.007 96.108C545.709 96.6493 547.062 97.4807 548.067 98.602C549.073 99.6847 549.575 101.251 549.575 103.3C549.614 105.079 549.15 106.683 548.183 108.114C547.217 109.545 545.825 110.666 544.007 111.478C542.19 112.29 540.044 112.696 537.569 112.696Z" fill="#1E0E62"/>
</svg>
